<svg width="2324" height="1342" viewBox="0 0 2324 1342" fill="none" xmlns="http://www.w3.org/2000/svg">
<path d="M51.1598 788.424C35.061 784.111 24.1201 776.003 18.3369 764.1C11.7372 752.669 10.3354 739.871 14.1314 725.704C20.5156 701.877 39.0948 678.903 69.8691 656.781C99.9994 634.486 135.448 618.103 176.214 607.63C186.61 604.894 197.563 602.653 209.074 600.906C219.941 598.987 232.355 596.446 246.315 593.285C267.477 565.826 288.793 533.923 310.266 497.576C331.911 460.584 353.39 419.062 374.702 373.008C360.384 387.807 347.314 400.524 335.491 411.16C324.313 421.968 315.435 430.632 308.857 437.152L304.046 420.334C320.342 403.305 335.695 384.642 350.105 364.347C365.332 343.581 379.57 323.929 392.819 305.394C406.712 287.03 419.57 272.531 431.392 261.895C443.214 251.259 453.955 247.235 463.614 249.823C470.698 251.721 475.395 256.086 477.705 262.916C480.833 269.276 481.275 276.641 479.032 285.013C477.134 292.096 471.492 305.423 462.107 324.994C453.538 344.094 441.744 367.506 426.723 395.23C412.519 422.482 396.015 451.879 377.211 483.42C358.407 514.961 338.55 546.565 317.642 578.233C339.249 572.29 360.943 566.024 382.724 559.437C404.504 552.85 427.32 542.399 451.171 528.084C475.666 513.942 501.415 492.544 528.418 463.89L539.163 474.016C512.884 507.695 485.456 532.784 456.879 549.284C429.118 565.311 401.921 576.659 375.287 583.326C348.654 589.994 323.804 596.448 300.735 602.691C275.871 638.82 248.948 672.326 219.967 703.211C191.629 734.269 163.172 758.047 134.595 774.546C105.373 790.873 77.5618 795.499 51.1598 788.424ZM51.2663 753.254C64.1453 756.705 86.6159 747.541 118.678 725.764C149.924 704.459 185.523 669.481 225.476 620.83C170.152 631.543 127.125 646.586 96.3974 665.96C65.0254 685.161 46.5787 705.065 41.0572 725.671C38.8141 734.043 38.8711 740.27 41.2281 744.352C43.4126 749.079 46.7586 752.046 51.2663 753.254ZM502.363 167.031C492.059 164.27 483.734 159.279 477.387 152.057C471.04 144.834 469.247 136.072 472.008 125.768C474.596 116.109 480.467 108.365 489.621 102.535C499.419 96.8786 510.396 93.263 522.551 91.6886C534.706 90.1143 545.935 90.7075 556.238 93.4682C565.253 95.8838 572.055 100.122 576.642 106.182C581.874 112.416 583.282 120.04 580.866 129.055C577.07 143.222 566.858 154.289 550.229 162.257C534.417 169.753 518.461 171.345 502.363 167.031ZM562.144 681.017C522.863 670.492 496.174 651.607 482.078 624.364C468.454 597.937 465.869 568.947 474.324 537.394C482.088 508.416 497.368 479.726 520.162 451.325C543.6 423.096 571.028 398.006 602.446 376.057C634.509 354.28 667.358 338.58 700.994 328.958C734.804 318.692 765.875 317.355 794.209 324.947C809.02 328.916 821.507 336.403 831.672 347.409C842.48 358.587 844.692 376.089 838.308 399.915C831.751 424.385 818.134 445.583 797.457 463.509C777.596 480.963 753.509 494.87 725.197 505.228C697.529 515.759 668.061 522.703 636.794 526.058C606.343 528.941 576.928 527.961 548.548 523.118C545.534 529.212 542.929 535.071 540.732 540.694C538.536 546.317 536.747 551.704 535.367 556.856C532.778 566.515 531.156 576.433 530.5 586.61C530.487 596.96 532.257 607.096 535.81 617.021C539.535 626.301 545.623 634.489 554.074 641.585C563.17 648.853 575.123 654.472 589.934 658.44C617.624 665.86 647.062 665.466 678.249 657.258C709.609 648.406 740.331 634.207 770.415 614.66C800.499 595.114 827.731 572.043 852.112 545.447L861.374 557.246C833.635 591.224 802.446 618.757 767.808 639.844C733.814 661.103 698.97 675.233 663.275 682.233C628.052 690.05 594.341 689.644 562.144 681.017ZM558.295 506.059C577.234 504.922 599.118 501.814 623.946 496.733C648.946 491.009 673.498 483.093 697.601 472.988C722.349 463.054 743.664 450.476 761.547 435.252C780.074 420.201 792.098 402.372 797.619 381.766C799.517 374.682 799.696 368.864 798.155 364.31C796.615 359.756 791.659 356.357 783.288 354.114C767.833 349.973 749.773 351.691 729.108 359.267C708.615 366.199 687.732 377.168 666.456 392.173C645.181 407.178 624.998 424.546 605.908 444.277C586.817 464.009 570.946 484.603 558.295 506.059ZM951.248 766.642C929.354 760.776 913.52 750.321 903.747 735.279C894.618 720.41 892.555 703.638 897.559 684.963C902.735 665.645 912.678 646.568 927.388 627.733C942.097 608.899 956.398 590.3 970.291 571.936C985 553.102 994.598 535.313 999.084 518.57C1004.61 497.964 1002.54 481.192 992.896 468.254C984.066 454.845 974.655 442.316 964.663 430.666C939.671 464.691 914.554 496.611 889.31 526.426C864.067 556.242 843.964 578.463 829.002 593.089L824.709 574.339C838.21 560.012 856.358 538.647 879.152 510.246C902.59 482.017 926.914 449.194 952.124 411.777C947.41 403.612 946.261 395.022 948.677 386.007C953.853 366.688 963.554 352.378 977.779 343.076C992.005 333.775 1001.69 329.814 1006.85 331.194C1013.93 333.092 1016.93 337.347 1015.85 343.959C1015.58 350.1 1015.02 354.78 1014.16 358C1013.29 361.22 1009.64 367.142 1003.18 375.766C997.549 383.918 994.473 388.96 993.955 390.892C991.539 399.907 994.126 409.573 1001.71 419.889C1010.12 429.733 1019.47 441.21 1029.76 454.32C1040.22 466.786 1048.47 481.075 1054.51 497.186C1061.36 512.826 1062.02 530.949 1056.5 551.555C1051.33 570.874 1041.88 589.393 1028.16 607.112C1015.08 625.004 1001.94 641.844 988.74 657.631C976.181 673.591 968.09 688.333 964.467 701.856C961.361 713.447 962.188 721.951 966.948 727.368C971.709 732.784 977.953 736.528 985.68 738.598C1001.13 742.739 1018.21 742.137 1036.89 736.792C1056.22 731.618 1075.6 723.697 1095.02 713.027C1114.45 702.358 1132.43 690.612 1148.98 677.792C1165.7 664.328 1178.86 651.289 1188.45 638.675L1198.42 651.698C1178.94 675.466 1155.03 697.704 1126.71 718.412C1098.56 738.476 1069.04 753.342 1038.15 763.01C1007.91 772.851 978.938 774.062 951.248 766.642ZM1214.91 863.171C1184.64 855.061 1162.3 841.829 1147.9 823.475C1133.96 805.937 1126.04 786.56 1124.13 765.344C1121.58 743.954 1122.89 723.601 1128.07 704.282C1133.25 684.964 1139.79 670.843 1147.7 661.92C1155.62 652.997 1163.8 646.909 1172.27 643.655C1181.37 640.574 1189.49 638.609 1196.62 637.758C1204.4 637.081 1209.92 635.799 1213.18 633.913C1238.2 617.839 1261.86 600.368 1284.17 581.499C1306.48 562.631 1327.2 541.957 1346.34 519.477L1349.44 507.886C1355.83 484.06 1364.18 468.352 1374.49 460.764C1385.63 452.704 1395.7 449.881 1404.71 452.297C1409.87 453.677 1413.38 456.001 1415.27 459.266C1417.16 462.532 1417.67 465.775 1416.8 468.995C1415.94 472.215 1413.6 477.108 1409.77 483.673C1405.94 490.239 1402.55 498.996 1399.62 509.943C1393.93 531.193 1391.9 555.497 1393.54 582.854C1395.36 609.567 1396.74 637.891 1397.69 667.824C1398.82 697.113 1395.41 726.568 1387.47 756.19C1385.23 764.561 1382.34 772.76 1378.81 780.786C1376.1 788.341 1372.83 795.401 1369 801.967C1392.57 804.143 1416.49 799.855 1440.77 789.105C1465.22 777.712 1491.61 756.486 1519.95 725.429L1526.05 737.417C1504.33 769.556 1478.73 791.685 1449.26 803.802C1419.95 815.276 1390.21 819.385 1360.03 816.128C1342.3 841.057 1320.45 856.941 1294.46 863.781C1269.11 870.794 1242.6 870.59 1214.91 863.171ZM1225.9 829.881C1233.62 831.952 1244.62 832.137 1258.88 830.436C1273.14 828.735 1286.65 818.209 1299.43 798.856C1273.77 786.458 1252.46 769.362 1235.53 747.569C1219.23 725.949 1208.09 705.709 1202.1 686.85C1187.76 683.698 1177.66 693.069 1171.8 714.963C1165.58 738.145 1166.56 761.529 1174.74 785.115C1183.73 808.23 1200.78 823.152 1225.9 829.881ZM1308.4 784.696C1311.42 778.601 1314.19 772.099 1316.73 765.188C1319.28 758.277 1321.84 749.992 1324.43 740.332C1332.54 710.067 1336.7 679.088 1336.91 647.395C1337.94 615.232 1339.41 585.259 1341.33 557.476C1319.96 577.978 1297.89 597.255 1275.11 615.307C1253.14 632.887 1232.77 647.099 1213.99 657.941C1218.13 681.136 1227.76 704.423 1242.89 727.803C1258.67 751.355 1280.51 770.319 1308.4 784.696ZM1552.59 946.408C1513.31 935.882 1486.63 916.998 1472.53 889.755C1458.91 863.328 1456.32 834.338 1464.78 802.784C1472.54 773.807 1487.82 745.117 1510.61 716.715C1534.05 688.486 1561.48 663.397 1592.9 641.447C1624.96 619.67 1657.81 603.971 1691.45 594.349C1725.25 584.083 1756.33 582.746 1784.66 590.338C1799.47 594.306 1811.96 601.793 1822.12 612.799C1832.93 623.978 1835.14 641.48 1828.76 665.306C1822.2 689.776 1808.59 710.974 1787.91 728.9C1768.05 746.354 1743.96 760.261 1715.65 770.619C1687.98 781.15 1658.51 788.093 1627.24 791.448C1596.79 794.332 1567.38 793.352 1539 788.508C1535.99 794.603 1533.38 800.462 1531.18 806.085C1528.99 811.708 1527.2 817.095 1525.82 822.246C1523.23 831.906 1521.61 841.824 1520.95 852.001C1520.94 862.35 1522.71 872.487 1526.26 882.411C1529.99 891.692 1536.07 899.88 1544.53 906.976C1553.62 914.244 1565.57 919.862 1580.39 923.831C1608.08 931.25 1637.51 930.856 1668.7 922.648C1700.06 913.797 1730.78 899.597 1760.87 880.051C1790.95 860.505 1818.18 837.434 1842.56 810.838L1851.83 822.637C1824.09 856.615 1792.9 884.148 1758.26 905.234C1724.27 926.494 1689.42 940.624 1653.73 947.624C1618.5 955.44 1584.79 955.035 1552.59 946.408ZM1548.75 771.45C1567.69 770.313 1589.57 767.204 1614.4 762.124C1639.4 756.399 1663.95 748.484 1688.05 738.378C1712.8 728.445 1734.12 715.866 1752 700.643C1770.52 685.592 1782.55 667.763 1788.07 647.156C1789.97 640.073 1790.15 634.254 1788.61 629.7C1787.07 625.147 1782.11 621.748 1773.74 619.505C1758.28 615.364 1740.22 617.081 1719.56 624.658C1699.07 631.59 1678.18 642.559 1656.91 657.564C1635.63 672.568 1615.45 689.937 1596.36 709.668C1577.27 729.399 1561.4 749.993 1548.75 771.45ZM1750.39 1243.73C1734.29 1239.42 1721.33 1231.11 1711.51 1218.82C1701.52 1207.17 1698.77 1192.97 1703.25 1176.23C1708.77 1155.63 1718.84 1138.65 1733.46 1125.32C1748.08 1111.98 1765.89 1100.88 1786.9 1092.01C1807.91 1083.15 1831.32 1075.62 1857.14 1069.42C1882.96 1063.23 1909.74 1057.29 1937.49 1051.61C1952.89 1030.2 1968.98 1006.21 1985.76 979.651C2003.35 952.618 2021.08 922.514 2038.94 889.34C2009.37 917.304 1979.39 940.329 1949 958.415C1919.44 976.029 1891.45 981.299 1865.05 974.225C1852.81 970.946 1841.27 965.092 1830.42 956.662C1820.38 947.761 1813.05 936.479 1808.43 922.818C1803.8 909.156 1803.91 893.31 1808.74 875.279C1813.57 857.249 1822.08 837.097 1834.26 814.823C1847.08 792.723 1861.02 771.611 1876.07 751.488C1891.13 731.366 1905.47 715.193 1919.1 702.97C1932.73 690.748 1943.08 685.585 1950.16 687.483C1952.74 688.174 1956.99 690.347 1962.91 694.005C1969.48 697.835 1975.14 702.458 1979.9 707.874C1985.48 712.82 1987.75 717.224 1986.71 721.088C1978.67 727.906 1969.04 738.094 1957.82 751.651C1946.59 765.207 1934.85 780.696 1922.59 798.117C1911.15 815.066 1900.76 831.952 1891.42 848.774C1882.08 865.597 1875.68 880.448 1872.23 893.327C1869.13 904.918 1869.2 914.946 1872.45 923.41C1875.71 931.873 1883.77 937.831 1896.65 941.282C1908.89 944.56 1923.96 942.388 1941.88 934.765C1960.61 926.671 1979.89 915.271 1999.7 900.565C2020.16 886.032 2039.68 869.866 2058.25 852.066C2062.08 845.5 2065.59 838.848 2068.77 832.11C2072.78 824.9 2076.46 817.604 2079.81 810.222C2084.16 801.724 2091.43 792.629 2101.62 782.936C2112.63 772.771 2126.18 769.846 2142.28 774.159C2145.5 775.022 2148.63 776.207 2151.68 777.713C2154.9 778.576 2158.27 780.169 2161.78 782.492C2159.02 792.795 2150.63 811.251 2136.6 837.86C2123.38 863.997 2105.97 894.187 2084.38 928.43C2063.42 962.846 2039.95 997.624 2013.97 1032.76C2047.34 1029.28 2082.06 1018.22 2118.11 999.585C2154.33 980.304 2187.41 950.863 2217.35 911.261L2227.32 924.285C2209.38 952.607 2187.32 975.684 2161.15 993.517C2135.79 1010.88 2108.63 1024.65 2079.67 1034.84C2050.89 1044.38 2023.12 1051.43 1996.36 1056C1968.57 1092.72 1939.87 1126.44 1910.24 1157.16C1881.26 1188.04 1852.89 1211.5 1825.13 1227.52C1797.84 1244.37 1772.93 1249.77 1750.39 1243.73ZM1753.84 1211.53C1763.5 1214.12 1783.05 1205.55 1812.49 1185.83C1842.4 1166.93 1878.78 1129.05 1921.62 1072.2C1891.42 1079.3 1863.24 1086.59 1837.08 1094.07C1810.74 1102.2 1788.66 1112.5 1770.82 1124.97C1752.99 1137.45 1741.22 1154.31 1735.53 1175.56C1734.15 1180.71 1734.44 1187.35 1736.4 1195.47C1738.37 1203.59 1744.18 1208.94 1753.84 1211.53Z" fill="white"/>
</svg>
