<svg width="185" height="73" viewBox="0 0 185 73" fill="none" xmlns="http://www.w3.org/2000/svg">
<path d="M3.01758 32V10.584H4.52637V30.623H14.7217V32H3.01758ZM31.8018 32L28.8867 24.4268H19.8926L16.9189 32H15.3809L23.8037 10.5107H25.1807L33.3838 32H31.8018ZM28.4033 23.0645L25.4443 15.0371C25.3662 14.832 25.2686 14.5684 25.1514 14.2461C25.0439 13.9238 24.9268 13.582 24.7998 13.2207C24.6826 12.8594 24.5654 12.5176 24.4482 12.1953C24.3506 12.5371 24.2432 12.8789 24.126 13.2207C24.0088 13.5625 23.8965 13.8945 23.7891 14.2168C23.6816 14.5293 23.5791 14.8125 23.4814 15.0664L20.4053 23.0645H28.4033ZM52.002 32H50.4639L37.8076 13.0596H37.7344C37.7539 13.5869 37.7686 14.124 37.7783 14.6709C37.7979 15.208 37.8125 15.7646 37.8223 16.3408C37.8418 16.9072 37.8516 17.4932 37.8516 18.0986V32H36.416V10.584H37.9688L50.5811 29.4658H50.6543C50.6445 29.0361 50.6299 28.5381 50.6104 27.9717C50.6006 27.4053 50.5859 26.8242 50.5664 26.2285C50.5566 25.6328 50.5518 25.0713 50.5518 24.5439V10.584H52.002V32ZM74.3555 21.0869C74.3555 23.4795 73.9307 25.4863 73.0811 27.1074C72.2412 28.7285 70.9912 29.9492 69.3311 30.7695C67.6807 31.5898 65.6348 32 63.1934 32H58.0664V10.584H63.8672C66.1523 10.584 68.0713 10.9844 69.624 11.7852C71.1768 12.5859 72.3535 13.7676 73.1543 15.3301C73.9551 16.8828 74.3555 18.8018 74.3555 21.0869ZM72.7734 21.1455C72.7734 19.1045 72.4414 17.4004 71.7773 16.0332C71.1133 14.666 70.0977 13.6406 68.7305 12.957C67.3633 12.2637 65.6299 11.917 63.5303 11.917H59.5752V30.667H63.1201C66.3525 30.667 68.7695 29.876 70.3711 28.2939C71.9727 26.7021 72.7734 24.3193 72.7734 21.1455ZM91.04 26.4775C91.04 27.7568 90.7178 28.8311 90.0732 29.7002C89.4287 30.5596 88.5547 31.209 87.4512 31.6484C86.3477 32.0781 85.0977 32.293 83.7012 32.293C82.832 32.293 82.041 32.249 81.3281 32.1611C80.625 32.083 79.9854 31.9756 79.4092 31.8389C78.8428 31.7021 78.3252 31.5459 77.8564 31.3701V29.8613C78.6182 30.1543 79.4971 30.4131 80.4932 30.6377C81.499 30.8525 82.5928 30.96 83.7744 30.96C84.8877 30.96 85.874 30.7988 86.7334 30.4766C87.6025 30.1543 88.2861 29.666 88.7842 29.0117C89.2822 28.3574 89.5312 27.5322 89.5312 26.5361C89.5312 25.6572 89.3213 24.9395 88.9014 24.3828C88.4912 23.8164 87.8711 23.333 87.041 22.9326C86.2109 22.5225 85.166 22.1074 83.9062 21.6875C83.0273 21.3848 82.2266 21.0674 81.5039 20.7354C80.791 20.3936 80.1807 20.0029 79.6729 19.5635C79.165 19.1143 78.7744 18.5771 78.501 17.9521C78.2373 17.3174 78.1055 16.5703 78.1055 15.7109C78.1055 14.5293 78.4033 13.5381 78.999 12.7373C79.6045 11.9268 80.4199 11.3164 81.4453 10.9062C82.4805 10.4863 83.6426 10.2764 84.9316 10.2764C85.957 10.2764 86.9287 10.374 87.8467 10.5693C88.7744 10.7549 89.668 11.0381 90.5273 11.4189L90 12.7227C89.1406 12.3516 88.2812 12.0781 87.4219 11.9023C86.5625 11.7266 85.7129 11.6387 84.873 11.6387C83.8672 11.6387 82.9688 11.79 82.1777 12.0928C81.3965 12.3857 80.7764 12.8301 80.3174 13.4258C79.8584 14.0215 79.6289 14.7734 79.6289 15.6816C79.6289 16.6191 79.8389 17.376 80.2588 17.9521C80.6885 18.5283 81.2939 19.0068 82.0752 19.3877C82.8662 19.7686 83.7988 20.1396 84.873 20.501C86.1426 20.9307 87.2363 21.3848 88.1543 21.8633C89.0723 22.332 89.7803 22.9277 90.2783 23.6504C90.7861 24.373 91.04 25.3154 91.04 26.4775ZM104.722 11.6387C103.354 11.6387 102.134 11.873 101.06 12.3418C99.9854 12.8008 99.0771 13.4551 98.335 14.3047C97.5928 15.1543 97.0264 16.1699 96.6357 17.3516C96.2451 18.5234 96.0498 19.8174 96.0498 21.2334C96.0498 23.1865 96.3574 24.8955 96.9727 26.3604C97.5879 27.8154 98.5107 28.9434 99.7412 29.7441C100.981 30.5449 102.524 30.9453 104.37 30.9453C105.444 30.9453 106.421 30.8672 107.3 30.7109C108.179 30.5449 108.994 30.335 109.746 30.0811V31.3994C109.033 31.6631 108.228 31.8779 107.329 32.0439C106.44 32.21 105.405 32.293 104.224 32.293C102.085 32.293 100.288 31.834 98.833 30.916C97.3877 29.998 96.2988 28.709 95.5664 27.0488C94.834 25.3887 94.4678 23.4502 94.4678 21.2334C94.4678 19.6416 94.6973 18.1816 95.1562 16.8535C95.6152 15.5156 96.2842 14.3584 97.1631 13.3818C98.0518 12.3955 99.1309 11.6338 100.4 11.0967C101.67 10.5498 103.115 10.2764 104.736 10.2764C105.762 10.2764 106.738 10.3789 107.666 10.584C108.604 10.7793 109.482 11.0674 110.303 11.4482L109.717 12.7666C108.926 12.376 108.115 12.0928 107.285 11.917C106.455 11.7314 105.601 11.6387 104.722 11.6387ZM127.661 32L124.746 24.4268H115.752L112.778 32H111.24L119.663 10.5107H121.04L129.243 32H127.661ZM124.263 23.0645L121.304 15.0371C121.226 14.832 121.128 14.5684 121.011 14.2461C120.903 13.9238 120.786 13.582 120.659 13.2207C120.542 12.8594 120.425 12.5176 120.308 12.1953C120.21 12.5371 120.103 12.8789 119.985 13.2207C119.868 13.5625 119.756 13.8945 119.648 14.2168C119.541 14.5293 119.438 14.8125 119.341 15.0664L116.265 23.0645H124.263ZM137.534 10.584C140.083 10.584 141.992 11.0723 143.262 12.0488C144.531 13.0254 145.166 14.5439 145.166 16.6045C145.166 17.6592 144.995 18.5967 144.653 19.417C144.321 20.2275 143.818 20.9111 143.145 21.4678C142.471 22.0244 141.626 22.4443 140.61 22.7275C139.604 23.0107 138.428 23.1523 137.08 23.1523H133.784V32H132.275V10.584H137.534ZM137.373 11.917H133.784V21.8193H136.934C138.32 21.8193 139.512 21.6631 140.508 21.3506C141.504 21.0283 142.271 20.4912 142.808 19.7393C143.345 18.9873 143.613 17.9619 143.613 16.6631C143.613 15.0127 143.105 13.8115 142.09 13.0596C141.074 12.2979 139.502 11.917 137.373 11.917ZM161.528 32H149.824V10.584H161.528V11.9463H151.333V20.0615H160.957V21.4238H151.333V30.6377H161.528V32Z" fill="black"/>
<path d="M2.69531 64V42.584H7.23633V60.25H15.9229V64H2.69531ZM19.6582 64V42.584H24.1992V64H19.6582ZM37.7197 51.9736H46.2158V63.0771C45.0928 63.4482 43.9258 63.7461 42.7148 63.9707C41.5039 64.1855 40.1318 64.293 38.5986 64.293C36.4697 64.293 34.6631 63.873 33.1787 63.0332C31.6943 62.1934 30.5664 60.9531 29.7949 59.3125C29.0234 57.6719 28.6377 55.6553 28.6377 53.2627C28.6377 51.0166 29.0674 49.0732 29.9268 47.4326C30.7959 45.792 32.0605 44.5225 33.7207 43.624C35.3906 42.7256 37.4268 42.2764 39.8291 42.2764C40.9619 42.2764 42.0801 42.3984 43.1836 42.6426C44.2871 42.8867 45.2881 43.2041 46.1865 43.5947L44.6777 47.2275C44.0234 46.8955 43.2764 46.6172 42.4365 46.3926C41.5967 46.168 40.7178 46.0557 39.7998 46.0557C38.4814 46.0557 37.334 46.3584 36.3574 46.9639C35.3906 47.5693 34.6387 48.4189 34.1016 49.5127C33.5742 50.5967 33.3105 51.876 33.3105 53.3506C33.3105 54.7471 33.501 55.9873 33.8818 57.0713C34.2627 58.1455 34.8633 58.9902 35.6836 59.6055C36.5039 60.2109 37.5732 60.5137 38.8916 60.5137C39.5361 60.5137 40.0781 60.4844 40.5176 60.4258C40.9668 60.3574 41.3867 60.2891 41.7773 60.2207V55.7529H37.7197V51.9736ZM68.877 64H64.3506V54.7568H55.8691V64H51.3281V42.584H55.8691V50.9775H64.3506V42.584H68.877V64ZM82.5586 64H78.0176V46.3633H72.2021V42.584H88.374V46.3633H82.5586V64ZM91.6699 64V42.584H96.2109V64H91.6699ZM120.601 64H114.829L105.513 47.7988H105.381C105.42 48.4727 105.454 49.1514 105.483 49.835C105.513 50.5186 105.542 51.2021 105.571 51.8857C105.601 52.5596 105.63 53.2383 105.659 53.9219V64H101.602V42.584H107.329L116.631 58.624H116.733C116.714 57.96 116.689 57.3008 116.66 56.6465C116.631 55.9922 116.602 55.3379 116.572 54.6836C116.553 54.0293 116.533 53.375 116.514 52.7207V42.584H120.601V64ZM134.136 51.9736H142.632V63.0771C141.509 63.4482 140.342 63.7461 139.131 63.9707C137.92 64.1855 136.548 64.293 135.015 64.293C132.886 64.293 131.079 63.873 129.595 63.0332C128.11 62.1934 126.982 60.9531 126.211 59.3125C125.439 57.6719 125.054 55.6553 125.054 53.2627C125.054 51.0166 125.483 49.0732 126.343 47.4326C127.212 45.792 128.477 44.5225 130.137 43.624C131.807 42.7256 133.843 42.2764 136.245 42.2764C137.378 42.2764 138.496 42.3984 139.6 42.6426C140.703 42.8867 141.704 43.2041 142.603 43.5947L141.094 47.2275C140.439 46.8955 139.692 46.6172 138.853 46.3926C138.013 46.168 137.134 46.0557 136.216 46.0557C134.897 46.0557 133.75 46.3584 132.773 46.9639C131.807 47.5693 131.055 48.4189 130.518 49.5127C129.99 50.5967 129.727 51.876 129.727 53.3506C129.727 54.7471 129.917 55.9873 130.298 57.0713C130.679 58.1455 131.279 58.9902 132.1 59.6055C132.92 60.2109 133.989 60.5137 135.308 60.5137C135.952 60.5137 136.494 60.4844 136.934 60.4258C137.383 60.3574 137.803 60.2891 138.193 60.2207V55.7529H134.136V51.9736Z" fill="black"/>
<rect x="167.049" y="38" width="3.12195" height="10.1463" rx="1.56098" fill="black"/>
<rect x="178.118" y="40.3413" width="3.12195" height="10.1463" rx="1.56098" transform="rotate(33.5406 178.118 40.3413)" fill="black"/>
<rect x="181.894" y="63.9062" width="3.12195" height="10.1463" rx="1.56098" transform="rotate(135 181.894 63.9062)" fill="black"/>
<rect x="164.724" y="48.2964" width="3.12195" height="10.1463" rx="1.56098" transform="rotate(135 164.724 48.2964)" fill="black"/>
<rect x="157.549" y="66.1138" width="3.12195" height="10.1463" rx="1.56098" transform="rotate(-135 157.549 66.1138)" fill="black"/>
<rect x="185" y="52.0488" width="3.12195" height="10.1463" rx="1.56098" transform="rotate(90 185 52.0488)" fill="black"/>
<rect x="163.146" y="52.0488" width="3.12195" height="10.1463" rx="1.56098" transform="rotate(90 163.146 52.0488)" fill="black"/>
</svg>
