<svg width="1191" height="948" viewBox="0 0 1191 948" fill="none" xmlns="http://www.w3.org/2000/svg">
<path d="M190.223 763.777C170.84 768.97 155.054 765.953 142.866 754.725C131.25 743.827 122.784 728.461 117.47 708.627C111.672 686.99 108.845 660.21 108.987 628.285C109.129 596.361 111.328 562.194 115.583 525.785C120.289 489.256 126.363 453.326 133.806 417.996C141.128 382.215 149.235 349.364 158.127 319.443C167.019 289.522 175.948 265.147 184.914 246.319C194.33 227.369 202.87 216.868 210.533 214.814C215.491 213.486 220.333 215.329 225.059 220.343C229.664 224.907 233.955 231.004 237.932 238.635C241.788 245.815 244.562 252.56 246.253 258.871C249.514 271.041 250.646 287.889 249.65 309.414C248.984 330.367 246.277 354.524 241.53 381.885C237.113 408.674 230.563 436.518 221.88 465.417C213.527 493.744 203.355 521.592 191.363 548.962C179.823 576.21 166.31 600.606 150.824 622.148C151.381 635.043 152.327 647.592 153.665 659.795C155.332 671.427 157.555 682.426 160.333 692.794C169.633 727.503 184.2 742.2 204.033 736.886C214.852 733.987 224.462 726.581 232.865 714.666C241.598 702.181 248.99 687.397 255.042 670.315C261.544 653.113 266.453 635.371 269.768 617.09C267.995 592.443 268.053 565.614 269.942 536.603C271.711 507.141 274.831 477.317 279.304 447.131C283.777 416.945 289.228 387.704 295.657 359.41C302.087 331.115 309.015 305.585 316.443 282.82C323.871 260.055 331.484 241.589 339.283 227.421C347.082 213.253 354.362 205.263 361.123 203.452C366.082 202.123 370.924 203.966 375.649 208.98C380.254 213.544 384.545 219.641 388.522 227.272C392.378 234.452 395.152 241.197 396.843 247.508C400.829 262.383 402.251 283.018 401.111 309.413C399.849 335.357 395.69 364.009 388.633 395.371C382.027 426.612 372.205 458.473 359.168 490.954C346.46 522.864 330.428 552.282 311.071 579.21C311.628 592.105 312.575 604.654 313.912 616.857C315.579 628.489 317.802 639.488 320.58 649.856C329.88 684.565 344.447 699.262 364.281 693.948C376.451 690.687 386.947 682.077 395.768 668.118C405.04 654.038 412.686 637.496 418.705 618.49C425.055 598.913 429.706 579.308 432.658 559.675L444.25 562.367C436.486 605.513 425.03 641.194 409.883 669.409C394.616 697.173 374.811 714.316 350.47 720.838C328.833 726.636 311.784 722.508 299.322 708.455C286.86 694.401 278.495 674.902 274.226 649.956C265.576 680.779 254.288 706.269 240.364 726.426C226.77 746.012 210.056 758.462 190.223 763.777ZM150.749 597.528C162.299 577.524 172.794 555.387 182.234 531.117C191.553 506.396 199.564 481.3 206.267 455.831C213.421 430.241 219.178 405.749 223.539 382.357C227.9 358.965 230.611 338.43 231.672 320.753C232.612 302.625 231.875 289.054 229.459 280.038C228.251 275.531 226.79 272.782 225.075 271.792C223.811 270.681 222.729 270.247 221.827 270.488C218.221 271.455 213.481 279.005 207.606 293.141C202.061 306.705 196.025 324.749 189.499 347.272C182.972 369.795 176.945 395.083 171.418 423.137C165.89 451.19 161.115 480.249 157.093 510.315C153.522 540.259 151.407 569.33 150.749 597.528ZM310.997 554.59C325.516 529.442 337.688 502.749 347.515 474.51C357.791 446.15 365.814 418.395 371.584 391.243C377.353 364.091 380.961 339.693 382.408 318.047C383.855 296.402 383.069 279.945 380.049 268.676C378.841 264.168 377.38 261.419 375.666 260.429C374.402 259.318 373.319 258.884 372.418 259.125C367.91 260.333 362.24 269.824 355.407 287.598C348.905 304.801 342.213 327.61 335.333 356.025C328.904 384.32 323.321 415.77 318.582 450.376C314.295 484.86 311.766 519.599 310.997 554.59ZM509.808 678.144C490.425 683.337 474.64 680.32 462.452 669.092C450.835 658.194 442.37 642.828 437.056 622.994C431.258 601.358 428.43 574.577 428.573 542.652C428.715 510.728 430.913 476.561 435.168 440.153C439.874 403.623 445.949 367.694 453.391 332.363C460.713 296.582 468.821 263.731 477.713 233.81C486.605 203.889 495.534 179.515 504.499 160.686C513.916 141.736 522.455 131.235 530.119 129.182C535.077 127.853 539.919 129.696 544.644 134.711C549.249 139.274 553.54 145.371 557.517 153.002C561.374 160.182 564.147 166.927 565.838 173.238C569.099 185.409 570.232 202.256 569.235 223.781C568.569 244.734 565.863 268.891 561.116 296.252C556.699 323.041 550.149 350.885 541.466 379.784C533.113 408.111 522.94 435.959 510.949 463.329C499.408 490.578 485.895 514.973 470.41 536.515C470.966 549.41 471.913 561.96 473.25 574.163C474.918 585.794 477.14 596.794 479.918 607.161C484.629 624.741 490.611 637.149 497.864 644.385C505.117 651.621 513.702 653.91 523.619 651.253C535.79 647.992 546.286 639.382 555.107 625.423C564.379 611.344 572.024 594.801 578.044 575.796C584.393 556.219 589.044 536.614 591.997 516.98L603.588 519.672C595.824 562.818 584.369 598.499 569.222 626.714C553.954 654.478 534.15 671.622 509.808 678.144ZM470.335 511.895C481.884 491.891 492.379 469.754 501.819 445.484C511.139 420.763 519.15 395.668 525.853 370.198C533.007 344.608 538.764 320.117 543.125 296.724C547.486 273.332 550.197 252.797 551.258 235.12C552.198 216.993 551.46 203.421 549.045 194.406C547.837 189.898 546.376 187.149 544.661 186.159C543.397 185.049 542.314 184.614 541.413 184.856C537.807 185.822 533.066 193.373 527.191 207.508C521.646 221.072 515.611 239.116 509.084 261.639C502.558 284.162 496.531 309.451 491.003 337.504C485.476 365.557 480.701 394.616 476.679 424.682C473.107 454.627 470.993 483.698 470.335 511.895ZM636.903 629.595C631.043 631.165 625.437 630.976 620.084 629.029C615.302 627.411 612.066 623.447 610.375 617.137C609.046 612.178 609.867 607.127 612.837 601.983C615.686 596.388 619.738 591.679 624.994 587.855C630.58 583.459 636.303 580.477 642.163 578.906C647.573 577.457 652.157 577.436 655.916 578.845C659.675 580.253 662.4 584.113 664.091 590.423C665.299 594.931 664.704 599.922 662.306 605.396C660.358 610.749 657.102 615.728 652.539 620.333C647.975 624.937 642.763 628.025 636.903 629.595ZM702.116 807.788C690.847 810.808 681.377 809.722 673.705 804.531C665.703 799.911 660.374 792.643 657.717 782.726C653.248 766.048 656.47 745.617 667.383 721.436C677.845 697.375 693.601 675.036 714.648 654.419C719.993 649.122 725.848 643.929 732.215 638.841C738.131 633.874 744.768 627.99 752.124 621.187C755.342 597.135 757.099 570.333 757.394 540.784C757.568 510.783 756.056 478.094 752.858 442.716C749.357 456.698 745.885 468.982 742.441 479.568C739.447 490.033 737.097 498.392 735.391 504.647L726.588 496.135C730.507 480.108 733.283 463.421 734.915 446.074C736.878 428.156 738.631 411.26 740.175 395.386C742.17 379.391 744.89 366.101 748.334 355.515C751.779 344.93 756.881 338.731 763.643 336.92C768.601 335.591 772.976 336.593 776.768 339.925C780.89 342.686 783.736 346.996 785.306 352.856C786.634 357.814 787.879 367.868 789.039 383.017C790.53 397.595 791.574 415.916 792.171 437.979C793.099 459.472 793.383 483.069 793.023 508.771C792.663 534.474 791.687 560.582 790.095 587.098C801.114 575.932 812.073 564.541 822.971 552.925C833.869 541.308 844.042 526.987 853.491 509.962C863.39 492.815 871.511 470.831 877.851 444.009L887.91 446.387C883.767 476.002 875.92 500.811 864.371 520.815C853.151 540.248 840.636 556.646 826.824 570.01C813.012 583.373 800.206 595.984 788.407 607.842C785.978 638.446 781.384 668.182 774.625 697.048C768.317 725.794 759.388 750.169 747.839 770.173C735.838 790.298 720.598 802.836 702.116 807.788ZM689.871 786.43C698.886 784.014 709.301 770.595 721.116 746.171C732.601 722.319 741.939 688.655 749.132 645.179C719.343 671.037 698.525 695.215 686.678 717.715C674.38 740.335 670.163 758.858 674.028 773.282C675.599 779.142 677.813 782.897 680.67 784.547C683.649 786.648 686.716 787.275 689.871 786.43ZM758.156 273.168C750.943 275.1 744.15 274.988 737.774 272.831C731.399 270.674 727.245 265.99 725.312 258.778C723.501 252.016 724.349 245.267 727.858 238.529C731.818 231.67 737.207 225.637 744.024 220.428C750.842 215.219 757.857 211.649 765.069 209.716C771.38 208.025 776.986 208.214 781.889 210.282C787.242 212.23 790.764 216.359 792.455 222.67C795.112 232.586 792.794 242.87 785.502 253.52C778.54 263.599 769.425 270.148 758.156 273.168ZM974.291 563.832C946.795 571.199 924.006 569.092 905.926 557.511C888.417 546.259 876.703 529.589 870.785 507.502C865.35 487.217 864.571 464.477 868.449 439.282C872.777 413.966 880.624 389.156 891.987 364.853C903.802 340.43 918.221 319.415 935.244 301.81C952.147 283.753 970.515 272.067 990.349 266.753C1000.72 263.975 1010.91 264.143 1020.92 267.257C1031.39 270.251 1038.85 280.087 1043.32 296.765C1047.91 313.894 1047.08 331.511 1040.81 349.615C1034.88 367.147 1025.15 384.008 1011.61 400.197C998.524 416.265 983.09 430.788 965.31 443.765C947.859 456.171 929.684 465.872 910.784 472.869C911.091 477.618 911.562 482.082 912.198 486.259C912.834 490.437 913.636 494.329 914.602 497.935C916.414 504.697 918.902 511.277 922.066 517.676C925.68 523.954 930.301 529.48 935.928 534.253C941.435 538.575 947.991 541.408 955.598 542.751C963.656 543.974 972.869 543.197 983.236 540.419C1002.62 535.225 1020.33 524.683 1036.36 508.791C1052.27 492.449 1065.93 473.089 1077.32 450.71C1088.72 428.332 1097.15 404.814 1102.63 380.158L1112.37 384.069C1107.45 414.376 1098.18 441.983 1084.56 466.889C1071.39 491.675 1055.21 512.436 1036.02 529.173C1017.41 546.24 996.829 557.793 974.291 563.832ZM910.723 459.116C921.806 451.798 933.985 442.255 947.257 430.485C960.409 418.265 972.523 404.873 983.598 390.31C995.123 375.627 1003.64 360.541 1009.16 345.054C1015.12 329.445 1016.17 314.428 1012.3 300.004C1010.97 295.045 1009.05 291.456 1006.52 289.234C1003.99 287.013 999.797 286.687 993.937 288.257C983.118 291.156 972.771 298.518 962.895 310.344C952.899 321.719 944.078 335.677 936.432 352.22C928.786 368.762 922.63 386.355 917.963 404.998C913.296 423.642 910.882 441.681 910.723 459.116Z" fill="#F5F5F5" fill-opacity="0.75"/>
</svg>
