<svg width="1440" height="750" viewBox="0 0 1440 750" fill="none" xmlns="http://www.w3.org/2000/svg">
<path d="M-124.75 562.5C-146.25 562.5 -161.75 555 -171.25 540C-180.25 525.5 -184.75 507.25 -184.75 485.25C-184.75 461.25 -180.25 432.75 -171.25 399.75C-162.25 366.75 -150.5 332 -136 295.5C-121 259 -104.75 223.5 -87.25 189C-69.75 154 -52.25 122.25 -34.75 93.75C-17.25 65.25 -1.24999 42.5 13.25 25.5C28.25 8.49997 40 -2.14577e-05 48.5 -2.14577e-05C54 -2.14577e-05 58.5 3.24998 62 9.74999C65.5 15.75 68.25 23.25 70.25 32.25C72.25 40.75 73.25 48.5 73.25 55.5C73.25 69 69.75 86.75 62.75 108.75C56.25 130.25 46.75 154.5 34.25 181.5C22.25 208 7.75002 235 -9.24999 262.5C-25.75 289.5 -44 315.5 -64 340.5C-83.5 365.5 -104.25 387 -126.25 405C-129.25 418.5 -131.75 431.75 -133.75 444.75C-135.25 457.25 -136 469.25 -136 480.75C-136 500.25 -133.25 514.75 -127.75 524.25C-122.25 533.75 -114 538.5 -103 538.5C-89.5 538.5 -76.25 532.5 -63.25 520.5C-49.75 508.5 -37.25 493.5 -25.75 475.5C-13.75 457 -3.49999 438 5.00001 418.5L16.25 424.5C-3.74999 467 -25.5 500.75 -49 525.75C-72.5 550.25 -97.75 562.5 -124.75 562.5ZM-119.5 379.5C-102 362 -85 342 -68.5 319.5C-52 296.5 -36.75 272.75 -22.75 248.25C-8.24999 223.75 4.50001 200 15.5 177C26.5 154 35 133.5 41 115.5C47 97 50 82.75 50 72.75C50 67.75 49.25 64.5 47.75 63C46.75 61.5 45.75 60.75 44.75 60.75C40.75 60.75 33.75 67.25 23.75 80.25C14.25 92.75 3.00002 109.75 -9.99999 131.25C-23 152.75 -36.25 177.25 -49.75 204.75C-63.25 232.25 -76.25 261 -88.75 291C-100.75 321 -111 350.5 -119.5 379.5ZM26.2461 575.25C10.7461 575.25 -2.25391 570 -12.7539 559.5C-23.7539 549.5 -29.2539 534 -29.2539 513C-29.2539 495 -25.2539 475.75 -17.2539 455.25C-9.25391 434.25 1.74609 413.75 15.7461 393.75C29.7461 373.25 45.4961 354.75 62.9961 338.25C80.9961 321.25 99.7461 307.75 119.246 297.75C139.246 287.75 158.996 282.75 178.496 282.75C197.996 282.75 214.246 288 227.246 298.5C240.246 308.5 246.746 322 246.746 339C246.746 351.5 243.246 360 236.246 364.5C229.746 369 220.996 371.25 209.996 371.25C210.996 367.25 211.746 363 212.246 358.5C213.246 353.5 213.746 349 213.746 345C213.746 333.5 210.996 323.75 205.496 315.75C199.996 307.25 190.496 303 176.996 303C162.996 303 148.746 308 134.246 318C119.746 327.5 105.746 340.5 92.2461 357C78.7461 373 66.7461 390.5 56.2461 409.5C45.7461 428.5 37.4961 447.25 31.4961 465.75C25.4961 484.25 22.4961 500.75 22.4961 515.25C22.4961 534.75 29.2461 544.5 42.7461 544.5C54.2461 544.5 66.7461 539.25 80.2461 528.75C93.7461 517.75 107.496 504 121.496 487.5C135.996 470.5 149.746 453 162.746 435C175.746 417 187.246 400.5 197.246 385.5C199.246 382.5 200.496 381 200.996 381C203.996 381.5 207.746 382.5 212.246 384C217.246 385.5 221.496 387.5 224.996 390C228.496 392.5 230.246 395.75 230.246 399.75C230.246 404.25 227.996 410.5 223.496 418.5C218.996 426 213.996 434.75 208.496 444.75C202.996 454.75 197.996 465 193.496 475.5C188.996 485.5 186.746 495 186.746 504C186.746 511.5 188.746 519 192.746 526.5C196.746 533.5 203.246 537 212.246 537C225.746 537 243.496 527.25 265.496 507.75C287.496 487.75 309.746 458 332.246 418.5L339.746 426C329.246 453 315.746 476.75 299.246 497.25C282.746 517.75 264.996 533.75 245.996 545.25C227.496 556.75 209.246 562.5 191.246 562.5C172.746 562.5 158.996 557 149.996 546C141.496 535 137.246 523 137.246 510C137.246 507 137.496 503.75 137.996 500.25C138.496 496.25 138.996 492.25 139.496 488.25C117.996 517.25 98.2461 539 80.2461 553.5C62.7461 568 44.7461 575.25 26.2461 575.25ZM559.156 555C541.656 555 528.406 550.5 519.406 541.5C510.906 532.5 506.656 521 506.656 507C506.656 496.5 508.406 485.5 511.906 474C515.906 462.5 519.656 450.75 523.156 438.75C526.656 426.25 528.406 414.25 528.406 402.75C528.406 388.75 525.406 379.25 519.406 374.25C513.906 368.75 506.906 366 498.406 366C482.906 366 467.156 372.5 451.156 385.5C435.156 398 419.656 414.25 404.656 434.25C389.656 453.75 375.656 474 362.656 495C349.656 516 338.156 534.75 328.156 551.25C320.156 551.25 312.656 549.75 305.656 546.75C298.156 544.25 292.406 540.25 288.406 534.75C288.406 532.25 291.156 524.5 296.656 511.5C301.656 498.5 307.656 482.5 314.656 463.5C321.656 444.5 327.906 425 333.406 405C338.906 385 341.656 366.75 341.656 350.25C344.656 346.75 349.406 343.25 355.906 339.75C362.406 336.25 369.156 334.5 376.156 334.5C389.656 334.5 396.406 341 396.406 354C396.406 362 394.156 375.5 389.656 394.5C385.156 413 379.406 432.5 372.406 453C385.906 432.5 400.906 412.25 417.406 392.25C434.406 371.75 452.406 354.75 471.406 341.25C490.406 327.75 509.406 321 528.406 321C547.906 321 561.906 328 570.406 342C579.406 356 583.906 371.5 583.906 388.5C583.906 404 581.406 418.5 576.406 432C571.406 445 566.156 457.75 560.656 470.25C555.656 482.25 553.156 494.5 553.156 507C553.156 517.5 555.156 525 559.156 529.5C563.656 533.5 569.156 535.5 575.656 535.5C588.156 535.5 600.656 529.75 613.156 518.25C625.656 506.25 637.656 491.25 649.156 473.25C661.156 455.25 671.656 437 680.656 418.5L688.906 428.25C678.406 452.75 666.656 474.5 653.656 493.5C640.656 512.5 626.406 527.5 610.906 538.5C595.406 549.5 578.156 555 559.156 555ZM710.521 562.5C702.021 562.5 693.271 560.25 684.271 555.75C675.771 551.75 668.771 545 663.271 535.5C657.271 526 654.271 514 654.271 499.5C654.271 483 658.271 464.5 666.271 444C674.271 423.5 685.021 403.25 698.521 383.25C712.021 362.75 727.521 344 745.021 327C762.521 309.5 780.771 295.75 799.771 285.75C818.771 275.25 837.521 270 856.022 270C866.521 270 874.522 272 880.022 276C886.022 279.5 889.021 285.25 889.021 293.25C889.021 295.25 888.771 297 888.271 298.5C888.271 300 888.021 301.75 887.521 303.75C885.021 299.75 881.271 297 876.271 295.5C871.771 293.5 866.021 292.5 859.021 292.5C843.021 292.5 827.271 297.5 811.771 307.5C796.771 317 782.771 329.75 769.771 345.75C757.271 361.25 746.271 378 736.771 396C727.271 414 719.771 431.5 714.271 448.5C709.271 465 706.771 479 706.771 490.5C706.771 501.5 709.271 510.25 714.271 516.75C719.271 523.25 725.771 526.5 733.771 526.5C747.271 526.5 763.521 518 782.521 501C802.021 484 821.771 460 841.771 429C861.771 398 879.771 361.75 895.772 320.25C906.771 291.25 918.021 261.75 929.521 231.75C941.522 201.75 953.522 173 965.521 145.5C977.521 117.5 989.021 92.75 1000.02 71.25C1011.52 49.25 1022.27 32 1032.27 19.5C1042.77 6.49998 1052.02 -2.14577e-05 1060.02 -2.14577e-05C1064.02 -2.14577e-05 1067.52 1.74997 1070.52 5.24996C1073.52 8.24998 1075.02 12.25 1075.02 17.25C1075.02 25.25 1070.77 39 1062.27 58.5C1054.27 77.5 1043.52 100.5 1030.02 127.5C1017.02 154 1003.27 183 988.771 214.5C974.271 246 960.271 278 946.771 310.5C933.771 343 923.022 374.5 914.522 405C906.522 435 902.522 462.5 902.522 487.5C902.522 501.5 903.272 512 904.771 519C906.271 526 911.271 529.5 919.772 529.5C930.272 529.5 942.522 525 956.522 516C970.522 507 984.521 494.25 998.521 477.75C1012.52 461.25 1024.77 441.5 1035.27 418.5L1044.27 425.25C1034.77 450.75 1021.77 473.75 1005.27 494.25C988.772 514.25 971.022 530 952.021 541.5C933.521 553.5 915.771 559.5 898.771 559.5C880.271 559.5 867.271 553.25 859.771 540.75C852.771 528.75 849.271 516.25 849.271 503.25C849.271 494.75 850.521 483.5 853.021 469.5C855.521 455.5 859.021 440 863.521 423C847.521 449.5 830.521 473.5 812.521 495C794.521 516 776.771 532.5 759.271 544.5C742.271 556.5 726.021 562.5 710.521 562.5ZM1099.51 578.25C1076.01 578.25 1057.26 573 1043.26 562.5C1029.76 552.5 1020.26 540 1014.76 525C1008.76 510 1005.76 495 1005.76 480C1005.76 465 1007.76 453.5 1011.76 445.5C1015.76 437.5 1020.51 431.5 1026.01 427.5C1032.01 423.5 1037.51 420.5 1042.51 418.5C1048.01 416.5 1051.76 414.5 1053.76 412.5C1068.76 396 1082.51 378.75 1095.01 360.75C1107.51 342.75 1118.51 323.75 1128.01 303.75V294.75C1128.01 276.25 1131.01 263.25 1137.01 255.75C1143.51 247.75 1150.26 243.75 1157.26 243.75C1161.26 243.75 1164.26 244.75 1166.26 246.75C1168.26 248.75 1169.26 251 1169.26 253.5C1169.26 256 1168.51 260 1167.01 265.5C1165.51 271 1164.76 278 1164.76 286.5C1164.76 303 1168.01 321 1174.51 340.5C1181.01 359.5 1187.51 379.75 1194.01 401.25C1200.51 422.25 1203.76 444.25 1203.76 467.25C1203.76 473.75 1203.26 480.25 1202.26 486.75C1201.76 492.75 1200.76 498.5 1199.26 504C1216.76 501 1233.26 493.25 1248.76 480.75C1264.26 467.75 1279.26 447.25 1293.76 419.25L1300.51 426.75C1291.01 454.25 1276.76 475.25 1257.76 489.75C1238.76 503.75 1218.01 512.5 1195.51 516C1187.51 537.5 1174.76 553.25 1157.26 563.25C1140.26 573.25 1121.01 578.25 1099.51 578.25ZM1101.01 552C1107.01 552 1115.01 550 1125.01 546C1135.01 542 1142.76 531.75 1148.26 515.25C1127.26 511.25 1108.51 503 1092.01 490.5C1076.01 478 1064.01 465.5 1056.01 453C1045.01 453.5 1039.51 462.25 1039.51 479.25C1039.51 497.25 1044.76 514 1055.26 529.5C1066.26 544.5 1081.51 552 1101.01 552ZM1152.01 503.25C1153.01 498.25 1153.76 493 1154.26 487.5C1154.76 482 1155.01 475.5 1155.01 468C1155.01 444.5 1152.01 421.25 1146.01 398.25C1140.51 374.75 1135.76 352.75 1131.76 332.25C1120.26 351.25 1108.01 369.5 1095.01 387C1082.51 404 1070.51 418.25 1059.01 429.75C1066.51 445.75 1078.01 460.75 1093.51 474.75C1109.51 488.75 1129.01 498.25 1152.01 503.25ZM1359.56 582C1335.56 582 1315.56 574 1299.56 558C1283.56 542 1275.56 518 1275.56 486C1275.56 461 1280.31 436.75 1289.81 413.25C1299.81 389.25 1312.81 367.75 1328.81 348.75C1344.81 329.75 1362.56 314.75 1382.06 303.75C1401.56 292.25 1420.81 286.5 1439.81 286.5C1460.31 286.5 1474.31 292.5 1481.81 304.5C1489.31 316.5 1493.06 329 1493.06 342C1493.06 356.5 1489.56 369.25 1482.56 380.25C1476.06 391.25 1467.06 396.75 1455.56 396.75C1447.06 396.75 1439.81 393 1433.81 385.5C1441.31 381.5 1447.81 373.5 1453.31 361.5C1458.81 349 1461.56 337.25 1461.56 326.25C1461.56 320.25 1460.31 315.75 1457.81 312.75C1455.81 309.25 1451.56 307.5 1445.06 307.5C1431.56 307.5 1417.56 313.5 1403.06 325.5C1389.06 337.5 1375.81 353 1363.31 372C1351.31 391 1341.31 411 1333.31 432C1325.81 453 1322.06 472.75 1322.06 491.25C1322.06 506.75 1325.81 521 1333.31 534C1340.81 547 1355.31 553.5 1376.81 553.5C1396.81 553.5 1416.81 548 1436.81 537C1457.31 526 1476.31 510.25 1493.81 489.75C1511.31 469.25 1525.31 445.25 1535.81 417.75L1545.56 425.25C1534.06 455.25 1518.31 482.25 1498.31 506.25C1478.31 529.75 1456.31 548.25 1432.31 561.75C1408.31 575.25 1384.06 582 1359.56 582ZM1557.74 575.25C1542.24 575.25 1529.24 570 1518.74 559.5C1507.74 549.5 1502.24 534 1502.24 513C1502.24 495 1506.24 475.75 1514.24 455.25C1522.24 434.25 1533.24 413.75 1547.24 393.75C1561.24 373.25 1576.99 354.75 1594.49 338.25C1612.49 321.25 1631.24 307.75 1650.74 297.75C1670.74 287.75 1690.49 282.75 1709.99 282.75C1729.49 282.75 1745.74 288 1758.74 298.5C1771.74 308.5 1778.24 322 1778.24 339C1778.24 351.5 1774.74 360 1767.74 364.5C1761.24 369 1752.49 371.25 1741.49 371.25C1742.49 367.25 1743.24 363 1743.74 358.5C1744.74 353.5 1745.24 349 1745.24 345C1745.24 333.5 1742.49 323.75 1736.99 315.75C1731.49 307.25 1721.99 303 1708.49 303C1694.49 303 1680.24 308 1665.74 318C1651.24 327.5 1637.24 340.5 1623.74 357C1610.24 373 1598.24 390.5 1587.74 409.5C1577.24 428.5 1568.99 447.25 1562.99 465.75C1556.99 484.25 1553.99 500.75 1553.99 515.25C1553.99 534.75 1560.74 544.5 1574.24 544.5C1585.74 544.5 1598.24 539.25 1611.74 528.75C1625.24 517.75 1638.99 504 1652.99 487.5C1667.49 470.5 1681.24 453 1694.24 435C1707.24 417 1718.74 400.5 1728.74 385.5C1730.74 382.5 1731.99 381 1732.49 381C1735.49 381.5 1739.24 382.5 1743.74 384C1748.74 385.5 1752.99 387.5 1756.49 390C1759.99 392.5 1761.74 395.75 1761.74 399.75C1761.74 404.25 1759.49 410.5 1754.99 418.5C1750.49 426 1745.49 434.75 1739.99 444.75C1734.49 454.75 1729.49 465 1724.99 475.5C1720.49 485.5 1718.24 495 1718.24 504C1718.24 511.5 1720.24 519 1724.24 526.5C1728.24 533.5 1734.74 537 1743.74 537C1757.24 537 1774.99 527.25 1796.99 507.75C1818.99 487.75 1841.24 458 1863.74 418.5L1871.24 426C1860.74 453 1847.24 476.75 1830.74 497.25C1814.24 517.75 1796.49 533.75 1777.49 545.25C1758.99 556.75 1740.74 562.5 1722.74 562.5C1704.24 562.5 1690.49 557 1681.49 546C1672.99 535 1668.74 523 1668.74 510C1668.74 507 1668.99 503.75 1669.49 500.25C1669.99 496.25 1670.49 492.25 1670.99 488.25C1649.49 517.25 1629.74 539 1611.74 553.5C1594.24 568 1576.24 575.25 1557.74 575.25ZM1801.15 750C1797.15 750 1793.4 747.75 1789.9 743.25C1785.9 739.25 1782.9 734.75 1780.9 729.75C1778.9 725.25 1777.9 722.5 1777.9 721.5C1784.9 697 1791.9 675 1798.9 655.5C1805.4 636.5 1812.15 616.75 1819.15 596.25C1825.65 576.25 1832.15 552.75 1838.65 525.75C1845.15 498.25 1851.9 464.25 1858.9 423.75C1865.9 383.25 1872.9 333 1879.9 273C1880.4 268.5 1881.4 265.25 1882.9 263.25C1884.4 261.25 1888.15 260.25 1894.15 260.25C1907.15 260.25 1916.4 264 1921.9 271.5C1927.4 278.5 1930.15 286.25 1930.15 294.75C1930.15 301.75 1928.65 314.25 1925.65 332.25C1922.65 350.25 1918.4 371.5 1912.9 396C1921.4 379.5 1931.9 362.75 1944.4 345.75C1957.4 328.75 1972.15 314.5 1988.65 303C2005.15 291.5 2023.15 285.75 2042.65 285.75C2064.65 285.75 2082.65 293.75 2096.65 309.75C2111.15 325.25 2118.4 345.75 2118.4 371.25C2118.4 390.75 2113.9 411.5 2104.9 433.5C2096.4 455 2084.15 475.5 2068.15 495C2052.65 514 2034.15 529.5 2012.65 541.5C1991.15 553.5 1967.4 559.5 1941.4 559.5C1928.4 559.5 1917.9 558 1909.9 555C1901.9 552 1897.9 549 1897.9 546C1897.9 544 1899.65 542.75 1903.15 542.25C1907.15 542.25 1911.65 542.25 1916.65 542.25C1936.65 542.25 1955.65 537.5 1973.65 528C1992.15 518 2008.65 505 2023.15 489C2037.65 473 2048.9 455.25 2056.9 435.75C2065.4 416.25 2069.65 397 2069.65 378C2069.65 362 2066.15 348.5 2059.15 337.5C2052.65 326 2041.9 320.25 2026.9 320.25C2013.9 320.25 2000.9 324.5 1987.9 333C1975.4 341 1963.4 351.5 1951.9 364.5C1940.9 377 1930.9 390.25 1921.9 404.25C1913.4 417.75 1906.9 430 1902.4 441C1893.4 478.5 1884.4 514.5 1875.4 549C1866.4 584 1857.65 615.5 1849.15 643.5C1841.15 672 1833.9 695.25 1827.4 713.25C1820.4 731.25 1814.65 742.25 1810.15 746.25C1807.65 748.75 1804.65 750 1801.15 750ZM2222.37 573C2191.87 573 2168.87 564.5 2153.37 547.5C2138.37 531 2130.87 510.5 2130.87 486C2130.87 463.5 2136.37 439.75 2147.37 414.75C2158.87 389.75 2173.87 366.25 2192.37 344.25C2211.37 322.25 2232.12 304.5 2254.62 291C2277.12 277 2299.37 270 2321.37 270C2332.87 270 2343.37 273 2352.87 279C2362.87 285 2367.87 297.25 2367.87 315.75C2367.87 334.75 2362.12 352.75 2350.62 369.75C2339.62 386.25 2324.87 401 2306.37 414C2288.37 427 2268.37 437.75 2246.37 446.25C2224.87 454.25 2203.37 459.25 2181.87 461.25C2180.87 466.25 2180.12 471 2179.62 475.5C2179.12 480 2178.87 484.25 2178.87 488.25C2178.87 495.75 2179.62 503.25 2181.12 510.75C2183.12 518.25 2186.37 525.25 2190.87 531.75C2195.37 537.75 2201.37 542.5 2208.87 546C2216.87 549.5 2226.62 551.25 2238.12 551.25C2259.62 551.25 2280.87 545.25 2301.87 533.25C2322.87 520.75 2342.37 504.5 2360.37 484.5C2378.37 464.5 2393.62 442.5 2406.12 418.5L2415.12 425.25C2401.62 455.25 2384.37 481.25 2363.37 503.25C2342.87 525.25 2320.37 542.25 2295.87 554.25C2271.87 566.75 2247.37 573 2222.37 573ZM2185.62 447C2199.12 442.5 2214.37 436 2231.37 427.5C2248.37 418.5 2264.62 408 2280.12 396C2296.12 384 2309.12 370.75 2319.12 356.25C2329.62 341.75 2334.87 326.5 2334.87 310.5C2334.87 305 2333.87 300.75 2331.87 297.75C2329.87 294.75 2325.62 293.25 2319.12 293.25C2307.12 293.25 2294.37 298 2280.87 307.5C2267.37 316.5 2254.37 328.5 2241.87 343.5C2229.37 358.5 2218.12 375 2208.12 393C2198.12 411 2190.62 429 2185.62 447Z" fill="white" fill-opacity="0.75"/>
</svg>
