<svg width="1626" height="940" viewBox="0 0 1626 940" fill="none" xmlns="http://www.w3.org/2000/svg">
<path d="M35.3268 552.197C24.0577 549.178 16.399 543.502 12.3508 535.17C7.73105 527.169 6.74977 518.209 9.40698 508.293C13.8759 491.614 26.8814 475.532 48.4233 460.047C69.5146 444.44 94.3283 432.972 122.865 425.641C130.142 423.726 137.809 422.157 145.867 420.934C153.474 419.591 162.163 417.812 171.936 415.6C186.749 396.379 201.67 374.046 216.701 348.603C231.853 322.709 246.888 293.643 261.806 261.406C251.784 271.765 242.635 280.667 234.359 288.112C226.534 295.678 220.319 301.743 215.715 306.306L212.347 294.534C223.754 282.613 234.501 269.55 244.589 255.343C255.248 240.806 265.214 227.051 274.488 214.075C284.213 201.221 293.214 191.071 301.489 183.626C309.765 176.181 317.283 173.364 324.045 175.176C329.003 176.505 332.291 179.56 333.909 184.341C336.098 188.793 336.407 193.949 334.837 199.809C333.509 204.767 329.56 214.096 322.99 227.796C316.992 241.166 308.736 257.554 298.221 276.961C288.278 296.037 276.725 316.615 263.562 338.694C250.4 360.773 236.5 382.896 221.864 405.063C236.99 400.903 252.175 396.517 267.422 391.906C282.668 387.295 298.639 379.979 315.335 369.959C332.481 360.059 350.505 345.081 369.407 325.023L376.929 332.111C358.534 355.687 339.334 373.249 319.33 384.799C299.897 396.018 280.859 403.961 262.216 408.628C243.573 413.296 226.178 417.814 210.03 422.183C192.624 447.474 173.778 470.929 153.492 492.548C133.656 514.288 113.735 530.933 93.7313 542.482C73.2764 553.911 53.8082 557.149 35.3268 552.197ZM35.4014 527.578C44.4167 529.993 60.1461 523.579 82.5896 508.335C104.462 493.421 129.381 468.936 157.348 434.881C118.621 442.38 88.5028 452.91 66.9931 466.472C45.0328 479.913 32.1201 493.846 28.255 508.27C26.6849 514.13 26.7247 518.489 28.3747 521.347C29.9038 524.655 32.246 526.732 35.4014 527.578ZM351.169 117.222C343.957 115.289 338.129 111.795 333.686 106.74C329.243 101.684 327.988 95.5502 329.92 88.3379C331.732 81.5764 335.842 76.1554 342.25 72.0748C349.108 68.115 356.792 65.5841 365.3 64.482C373.809 63.38 381.669 63.7952 388.881 65.7277C395.192 67.4187 399.953 70.3854 403.165 74.6277C406.827 78.9909 407.812 84.3279 406.121 90.6386C403.464 100.555 396.316 108.303 384.675 113.88C373.607 119.127 362.438 120.241 351.169 117.222ZM393.016 477.012C365.519 469.644 346.837 456.425 336.97 437.355C327.433 418.856 325.623 398.563 331.542 376.476C336.977 356.191 347.672 336.108 363.628 316.227C380.035 296.467 399.235 278.905 421.228 263.54C443.671 248.296 466.666 237.306 490.211 230.571C513.877 223.384 535.627 222.449 555.461 227.763C565.829 230.541 574.57 235.782 581.685 243.486C589.251 251.311 590.8 263.562 586.331 280.241C581.741 297.37 572.209 312.208 557.735 324.756C543.832 336.974 526.972 346.709 507.153 353.96C487.785 361.332 467.158 366.192 445.271 368.54C423.955 370.559 403.364 369.873 383.498 366.482C381.389 370.749 379.565 374.85 378.028 378.786C376.49 382.722 375.238 386.493 374.272 390.099C372.46 396.861 371.324 403.803 370.865 410.927C370.856 418.172 372.095 425.267 374.582 432.214C377.189 438.711 381.451 444.442 387.367 449.409C393.734 454.497 402.101 458.43 412.469 461.208C431.852 466.402 452.459 466.126 474.289 460.38C496.241 454.184 517.746 444.245 538.805 430.562C559.864 416.88 578.927 400.73 595.994 382.113L602.477 390.372C583.059 414.157 561.227 433.43 536.981 448.191C513.185 463.072 488.794 472.963 463.807 477.863C439.151 483.335 415.554 483.051 393.016 477.012ZM390.321 354.542C403.579 353.746 418.898 351.57 436.277 348.013C453.777 344.006 470.963 338.465 487.836 331.391C505.159 324.438 520.08 315.633 532.598 304.976C545.567 294.441 553.983 281.961 557.848 267.536C559.177 262.578 559.302 258.505 558.224 255.317C557.145 252.129 553.676 249.75 547.816 248.18C536.998 245.281 524.356 246.484 509.89 251.787C495.546 256.64 480.927 264.318 466.034 274.821C451.142 285.324 437.014 297.482 423.65 311.294C410.287 325.106 399.177 339.522 390.321 354.542ZM665.389 536.95C650.063 532.843 638.979 525.525 632.138 514.996C625.748 504.587 624.304 492.847 627.806 479.774C631.43 466.251 638.39 452.898 648.686 439.713C658.983 426.529 668.994 413.51 678.719 400.655C689.015 387.471 695.734 375.019 698.874 363.299C702.739 348.875 701.295 337.134 694.542 328.078C688.361 318.692 681.773 309.921 674.779 301.766C657.285 325.583 639.703 347.927 622.032 368.798C604.362 389.669 590.29 405.224 579.816 415.462L576.811 402.337C586.262 392.308 598.966 377.353 614.921 357.472C631.328 337.712 648.355 314.736 666.002 288.544C662.702 282.829 661.898 276.815 663.589 270.505C667.212 256.982 674.003 246.965 683.961 240.453C693.918 233.942 700.7 231.17 704.307 232.136C709.265 233.465 711.366 236.443 710.609 241.072C710.423 245.37 710.028 248.646 709.424 250.9C708.821 253.154 706.26 257.299 701.744 263.336C697.799 269.043 695.646 272.572 695.283 273.925C693.592 280.235 695.403 287.001 700.715 294.222C706.599 301.113 713.142 309.147 720.346 318.324C727.67 327.05 733.445 337.053 737.67 348.33C742.467 359.278 742.932 371.964 739.067 386.389C735.444 399.912 728.83 412.875 719.226 425.279C710.073 437.803 700.875 449.591 691.633 460.642C682.842 471.814 677.178 482.133 674.642 491.599C672.468 499.713 673.047 505.666 676.379 509.457C679.711 513.249 684.082 515.869 689.491 517.319C700.309 520.218 712.259 519.796 725.34 516.054C738.871 512.433 752.435 506.888 766.032 499.419C779.628 491.95 792.218 483.729 803.803 474.754C815.507 465.329 824.717 456.202 831.431 447.372L838.409 456.489C824.772 473.126 808.039 488.693 788.212 503.188C768.506 517.233 747.841 527.639 726.22 534.407C705.049 541.296 684.772 542.143 665.389 536.95ZM849.949 604.52C828.763 598.843 813.127 589.58 803.042 576.732C793.287 564.456 787.742 550.892 786.407 536.04C784.621 521.068 785.54 506.82 789.164 493.298C792.787 479.775 797.368 469.89 802.907 463.644C808.446 457.398 814.177 453.136 820.102 450.859C826.477 448.702 832.16 447.326 837.151 446.731C842.593 446.256 846.457 445.359 848.743 444.039C866.252 432.787 882.815 420.558 898.432 407.35C914.049 394.142 928.556 379.67 941.952 363.934L944.126 355.82C948.595 339.142 954.44 328.147 961.661 322.835C969.453 317.192 976.505 315.217 982.815 316.908C986.421 317.874 988.884 319.5 990.204 321.787C991.524 324.073 991.882 326.343 991.278 328.597C990.675 330.85 989.032 334.275 986.351 338.871C983.67 343.467 981.303 349.597 979.25 357.26C975.264 372.135 973.846 389.148 974.995 408.298C976.266 426.997 977.234 446.823 977.9 467.776C978.687 488.279 976.303 508.898 970.747 529.633C969.177 535.493 967.156 541.232 964.684 546.85C962.784 552.139 960.493 557.081 957.812 561.677C974.314 563.2 991.061 560.199 1008.05 552.674C1025.17 544.698 1043.64 529.84 1063.48 508.1L1067.75 516.492C1052.55 538.989 1034.63 554.479 1013.99 562.962C993.483 570.993 972.663 573.869 951.533 571.589C939.127 589.04 923.828 600.159 905.635 604.947C887.894 609.856 869.332 609.713 849.949 604.52ZM857.642 581.217C863.051 582.666 870.747 582.796 880.728 581.605C890.71 580.415 900.173 573.046 909.117 559.499C891.151 550.82 876.24 538.853 864.384 523.599C852.979 508.464 845.181 494.296 840.988 481.095C830.95 478.888 823.878 485.448 819.772 500.774C815.423 517.002 816.11 533.371 821.832 549.881C828.125 566.061 840.062 576.506 857.642 581.217ZM915.396 549.587C917.506 545.321 919.45 540.769 921.229 535.931C923.009 531.094 924.804 525.294 926.616 518.533C932.293 497.347 935.205 475.661 935.351 453.477C936.07 430.962 937.102 409.981 938.448 390.533C923.49 404.885 908.038 418.378 892.091 431.015C876.715 443.321 862.455 453.269 849.309 460.859C852.205 477.095 858.95 493.396 869.541 509.762C880.584 526.248 895.869 539.523 915.396 549.587ZM1086.33 662.785C1058.83 655.418 1040.15 642.199 1030.29 623.128C1020.75 604.63 1018.94 584.337 1024.86 562.249C1030.29 541.965 1040.99 521.882 1056.94 502.001C1073.35 482.24 1092.55 464.678 1114.54 449.313C1136.99 434.069 1159.98 423.08 1183.53 416.344C1207.19 409.158 1228.94 408.222 1248.78 413.536C1259.14 416.314 1267.89 421.555 1275 429.259C1282.57 437.084 1284.12 449.336 1279.65 466.014C1275.06 483.143 1265.52 497.982 1251.05 510.53C1237.15 522.748 1220.29 532.482 1200.47 539.733C1181.1 547.105 1160.47 551.965 1138.59 554.314C1117.27 556.332 1096.68 555.646 1076.81 552.256C1074.7 556.522 1072.88 560.623 1071.34 564.559C1069.81 568.495 1068.55 572.266 1067.59 575.873C1065.78 582.634 1064.64 589.577 1064.18 596.7C1064.17 603.945 1065.41 611.041 1067.9 617.988C1070.51 624.484 1074.77 630.216 1080.68 635.183C1087.05 640.271 1095.42 644.204 1105.78 646.982C1125.17 652.175 1145.77 651.899 1167.61 646.154C1189.56 639.958 1211.06 630.018 1232.12 616.336C1253.18 602.653 1272.24 586.503 1289.31 567.886L1295.79 576.146C1276.38 599.931 1254.54 619.203 1230.3 633.964C1206.5 648.846 1182.11 658.737 1157.12 663.637C1132.47 669.108 1108.87 668.824 1086.33 662.785ZM1083.64 540.315C1096.9 539.519 1112.21 537.343 1129.59 533.787C1147.09 529.779 1164.28 524.239 1181.15 517.165C1198.48 510.211 1213.4 501.406 1225.91 490.75C1238.88 480.214 1247.3 467.734 1251.16 453.309C1252.49 448.351 1252.62 444.278 1251.54 441.09C1250.46 437.903 1246.99 435.524 1241.13 433.953C1230.31 431.055 1217.67 432.257 1203.21 437.56C1188.86 442.413 1174.24 450.091 1159.35 460.595C1144.46 471.098 1130.33 483.256 1116.97 497.067C1103.6 510.879 1092.49 525.295 1083.64 540.315ZM1224.79 870.912C1213.52 867.893 1204.45 862.08 1197.57 853.474C1190.58 845.32 1188.65 835.382 1191.79 823.662C1195.66 809.238 1202.71 797.357 1212.94 788.021C1223.17 778.684 1235.64 770.913 1250.35 764.708C1265.05 758.503 1281.44 753.232 1299.51 748.895C1317.59 744.558 1336.33 740.402 1355.76 736.427C1366.54 721.44 1377.8 704.649 1389.55 686.056C1401.86 667.132 1414.27 646.06 1426.78 622.838C1406.07 642.413 1385.08 658.53 1363.82 671.19C1343.12 683.52 1323.53 687.209 1305.05 682.257C1296.49 679.962 1288.4 675.865 1280.81 669.964C1273.78 663.733 1268.65 655.835 1265.41 646.272C1262.18 636.709 1262.25 625.617 1265.63 612.995C1269.01 600.374 1274.97 586.268 1283.49 570.676C1292.47 555.206 1302.23 540.428 1312.77 526.342C1323.3 512.256 1333.34 500.935 1342.88 492.379C1352.42 483.823 1359.67 480.21 1364.63 481.538C1366.43 482.022 1369.41 483.543 1373.55 486.103C1378.15 488.784 1382.11 492.02 1385.44 495.812C1389.35 499.274 1390.94 502.357 1390.21 505.061C1384.59 509.834 1377.84 516.966 1369.99 526.455C1362.13 535.945 1353.91 546.787 1345.33 558.982C1337.32 570.846 1330.04 582.666 1323.51 594.442C1316.97 606.218 1312.49 616.614 1310.08 625.629C1307.9 633.743 1307.96 640.762 1310.23 646.687C1312.51 652.611 1318.16 656.782 1327.17 659.197C1335.74 661.492 1346.29 659.972 1358.83 654.636C1371.94 648.97 1385.44 640.99 1399.31 630.696C1413.63 620.522 1427.29 609.206 1440.29 596.746C1442.97 592.15 1445.43 587.494 1447.66 582.777C1450.46 577.73 1453.03 572.623 1455.39 567.455C1458.43 561.507 1463.52 555.14 1470.65 548.355C1478.35 541.24 1487.84 539.192 1499.11 542.212C1501.36 542.815 1503.56 543.645 1505.69 544.699C1507.94 545.303 1510.3 546.418 1512.76 548.045C1510.83 555.257 1504.95 568.176 1495.13 586.802C1485.88 605.098 1473.7 626.231 1458.58 650.201C1443.91 674.292 1427.48 698.637 1409.3 723.235C1432.66 720.798 1456.95 713.056 1482.19 700.01C1507.55 686.513 1530.7 665.904 1551.66 638.183L1558.64 647.3C1546.08 667.125 1530.64 683.279 1512.32 695.762C1494.57 707.915 1475.56 717.557 1455.29 724.687C1435.14 731.367 1415.7 736.304 1396.97 739.498C1377.52 765.206 1357.42 788.81 1336.69 810.309C1316.4 831.928 1296.54 848.347 1277.11 859.567C1258 871.358 1240.56 875.14 1224.79 870.912ZM1227.2 848.37C1233.97 850.181 1247.65 844.186 1268.26 830.382C1289.2 817.151 1314.66 790.638 1344.65 750.843C1323.51 755.808 1303.78 760.91 1285.47 766.148C1267.04 771.838 1251.58 779.049 1239.09 787.781C1226.61 796.514 1218.37 808.318 1214.38 823.193C1213.42 826.8 1213.62 831.444 1215 837.127C1216.37 842.81 1220.44 846.558 1227.2 848.37Z" fill="white"/>
</svg>
